<?xml version="1.0" encoding="utf-8"?>
<!-- Generator: Adobe Illustrator 28.1.0, SVG Export Plug-In . SVG Version: 6.00 Build 0)  -->
<svg version="1.1" id="Layer_1" xmlns="http://www.w3.org/2000/svg" xmlns:xlink="http://www.w3.org/1999/xlink" x="0px" y="0px"
	 viewBox="0 0 850.4 283.5" style="enable-background:new 0 0 850.4 283.5;" xml:space="preserve">
<style type="text/css">
	.st0{fill:#8ED8F8;}
	.st1{fill:url(#SVGID_1_);}
	.st2{fill:#074C7A;}
</style>
<g>
	<g>
		<g>
			<path class="st0" d="M137.2,64.6c-5.6,0-11.2,2.1-15.4,6.4l-47.1,47.1c-8.5,8.5-8.5,22.3,0,30.8l50.1,50.1
				c8.6,8.6,22.6,8.5,31.1-0.2c8.4-8.6,7.7-22.6-0.8-31.1L132.4,145c-6.4-6.4-6.4-16.7,0-23.1l20.2-20.2c8.5-8.5,8.5-22.3,0-30.8
				C148.3,66.7,142.7,64.6,137.2,64.6z"/>
		</g>
		<g>
			<g>
				
					<linearGradient id="SVGID_1_" gradientUnits="userSpaceOnUse" x1="72.3881" y1="177.2394" x2="163.4145" y2="95.549" gradientTransform="matrix(1 0 0 -1 0 252.7471)">
					<stop  offset="0" style="stop-color:#8ED8F8"/>
					<stop  offset="1" style="stop-color:#0F90C0"/>
				</linearGradient>
				<path class="st1" d="M74.6,148.9c-8.5-8.5-8.5-22.3,0-30.8L121.8,71c4.3-4.3,9.8-6.4,15.4-6.4s11.2,2.1,15.4,6.4
					c8.5,8.5,8.5,22.3,0,30.8c0,0-23.6,23.6-31.7,31.7c-13.9,13.9-18.2,43.5,3.9,65.5L74.6,148.9z"/>
			</g>
		</g>
	</g>
	<g>
		<g>
			<path class="st2" d="M311.5,169.8c-11.7,0-20.7-3.1-26.9-9.3c-6.2-6.2-9.3-15.8-9.3-28.7c0-12.6,3-22.1,8.9-28.6
				c5.9-6.5,15-9.7,27.3-9.7c3.9,0,7.8,0.5,11.8,1.4c4,1,7.8,2.3,11.5,4v15.5c-3.8-2.5-7.5-4.3-11-5.4c-3.5-1.1-6.8-1.6-9.9-1.6
				c-4.3,0-8,0.8-10.9,2.3c-3,1.5-5.2,4.1-6.8,7.7c-1.6,3.6-2.4,8.4-2.4,14.5c0,6.1,0.8,10.9,2.4,14.4c1.6,3.5,3.9,6,7,7.5
				c3.1,1.5,6.9,2.3,11.5,2.3c2.7,0,5.8-0.5,9.2-1.5c3.4-1,7.1-2.8,10.9-5.3v15.5c-2.1,1-4.4,1.9-7,2.7c-2.6,0.8-5.3,1.4-8.1,1.8
				C316.9,169.6,314.2,169.8,311.5,169.8z"/>
			<path class="st2" d="M372.7,170c-9.4,0-16.4-2.5-21.2-7.5c-4.7-5-7.1-12.4-7.1-22.1c0-10.5,2.4-18,7.2-22.6
				c4.8-4.6,11.8-6.9,21-6.9c6.2,0,11.4,1,15.7,3.1c4.2,2.1,7.4,5.3,9.6,9.6c2.2,4.3,3.2,9.9,3.2,16.7c0,9.7-2.5,17.1-7.4,22.1
				C388.8,167.5,381.8,170,372.7,170z M372.7,156.9c2.7,0,5-0.6,6.8-1.9c1.8-1.3,3.1-3.1,4.1-5.6s1.4-5.5,1.4-9.1
				c0-4.1-0.5-7.3-1.4-9.7c-0.9-2.4-2.3-4.1-4.1-5.2c-1.8-1.1-4.1-1.6-6.7-1.6c-2.8,0-5.1,0.6-6.8,1.6c-1.8,1.1-3.1,2.8-3.9,5.2
				c-0.8,2.4-1.3,5.6-1.3,9.6c0,5.6,1,9.7,2.9,12.5C365.5,155.6,368.5,156.9,372.7,156.9z"/>
			<path class="st2" d="M427.4,168.4l-23.2-55.6H422l16.8,42.9l-4,0.1l14.9-43h17.3l-23.2,55.6H427.4z"/>
			<path class="st2" d="M496.1,170c-3.4,0-6.5-0.3-9.5-0.9c-3-0.6-5.6-1.6-7.8-3.1c-2.2-1.4-4-3.4-5.2-5.8c-1.2-2.5-1.9-5.5-1.9-9.2
				c0-3.4,0.7-6.4,2.1-9c1.4-2.6,3.6-4.5,6.5-5.9c2.9-1.4,6.6-2.1,11.1-2.1c2.5,0,4.9,0.3,7.3,0.8c2.3,0.5,4.5,1.2,6.3,2.1
				c1.9,0.9,3.4,1.8,4.5,2.9l0.7,7.9c-1.5-0.9-3.2-1.6-5.3-2.1c-2.1-0.5-4.3-0.8-6.6-0.8c-3.6,0-6.2,0.5-7.9,1.6
				c-1.6,1.1-2.5,2.7-2.5,5c0,1.4,0.4,2.6,1.2,3.7c0.8,1.1,1.9,1.9,3.2,2.5c1.4,0.6,2.8,0.9,4.2,0.9c3.7,0,6.4-0.3,7.9-0.8
				c1.5-0.5,2.3-1.5,2.3-3.1v-20.4c0-3.4-1.1-5.8-3.2-7.3c-2.2-1.5-5.2-2.3-9.2-2.3c-3.2,0-6.5,0.6-9.7,1.7c-3.3,1.1-5.9,2.5-8,4.1
				V116c1.9-1.2,4.9-2.3,8.8-3.3c4-1,8.5-1.5,13.5-1.5c1.8,0,3.7,0.1,5.8,0.4c2.1,0.3,4.2,0.8,6.4,1.6c2.1,0.8,4.1,1.9,5.9,3.4
				c1.8,1.5,3.2,3.3,4.3,5.6c1.1,2.3,1.6,5.1,1.6,8.5l-0.1,26.3c0,3.2-1.1,5.7-3.2,7.6c-2.1,1.9-5.2,3.4-9.2,4.2
				C506.5,169.6,501.7,170,496.1,170z"/>
			<path class="st2" d="M553.8,170c-4,0-7.3-0.4-10.2-1.3c-2.8-0.8-5.5-1.8-8-2.8v-14.4c1.5,1,3.3,2.1,5.2,3.1
				c1.9,1.1,4,1.9,6.3,2.6c2.3,0.7,4.7,1,7.3,1c2.6,0,4.5-0.5,5.5-1.4c1.1-0.9,1.6-2,1.6-3.4c0-1.2-0.6-2.3-1.6-3
				c-1.1-0.8-2.5-1.4-4.3-1.9c-1.8-0.5-3.6-1-5.6-1.4c-1.8-0.4-3.5-0.9-5.3-1.7c-1.8-0.8-3.3-1.8-4.7-3.1c-1.4-1.3-2.5-2.9-3.4-4.9
				c-0.8-1.9-1.3-4.3-1.3-7.1c0-3.6,0.7-6.6,2.1-9c1.4-2.4,3.2-4.3,5.5-5.8c2.3-1.5,4.7-2.5,7.4-3.1c2.6-0.6,5.2-0.9,7.7-0.8
				c4.5,0.1,8.2,0.6,10.8,1.5c2.7,0.8,5.1,1.9,7.3,3.2v12.9c-2.5-1.4-5-2.7-7.4-3.9c-2.5-1.2-5.3-1.8-8.4-1.8
				c-2.9,0-4.9,0.4-6.2,1.3c-1.2,0.9-1.9,2.1-1.9,3.5c0,1.4,0.4,2.5,1.3,3.3c0.8,0.8,2,1.4,3.4,1.9c1.4,0.5,2.9,0.9,4.6,1.4
				c1.8,0.4,3.7,1,5.7,1.6c1.9,0.6,3.8,1.5,5.5,2.6c1.7,1.1,3.1,2.7,4.2,4.7c1.1,2,1.6,4.7,1.6,8c-0.1,4.5-1.3,8-3.6,10.7
				c-2.3,2.7-5.4,4.6-9.1,5.7C562.1,169.5,558.1,170,553.8,170z"/>
			<path class="st2" d="M616.1,169.8c-4,0-7.7-0.6-11.2-1.8c-3.5-1.2-6.6-2.9-9.3-5.3c-2.7-2.3-4.8-5.3-6.4-8.9s-2.3-7.8-2.3-12.5
				c0-5.1,0.7-9.5,2.2-13.2c1.5-3.8,3.5-6.9,6.1-9.4c2.6-2.5,5.7-4.4,9.2-5.6c3.5-1.2,7.4-1.9,11.6-1.9c3,0,6.1,0.3,9.3,0.9
				c3.2,0.6,6,1.5,8.4,2.6v14.1c-2.6-1.2-5.1-2.1-7.5-2.9c-2.5-0.8-5-1.2-7.5-1.2c-4.6,0-8.3,1.2-11.2,3.5
				c-2.8,2.3-4.2,6.1-4.2,11.3c0,5.5,1.2,9.6,3.7,12.4c2.5,2.8,6.6,4.2,12.4,4.2c2.7,0,5.3-0.5,7.9-1.4c2.5-1,4.7-1.9,6.5-3v14
				c-2.6,1.3-5.2,2.3-8,3.1C623,169.4,619.7,169.8,616.1,169.8z"/>
			<path class="st2" d="M666.4,170c-3.4,0-6.5-0.3-9.5-0.9c-3-0.6-5.6-1.6-7.8-3.1c-2.2-1.4-4-3.4-5.2-5.8c-1.2-2.5-1.9-5.5-1.9-9.2
				c0-3.4,0.7-6.4,2.1-9c1.4-2.6,3.6-4.5,6.5-5.9c2.9-1.4,6.6-2.1,11.1-2.1c2.5,0,4.9,0.3,7.3,0.8c2.3,0.5,4.5,1.2,6.3,2.1
				c1.9,0.9,3.4,1.8,4.5,2.9l0.7,7.9c-1.5-0.9-3.2-1.6-5.3-2.1c-2.1-0.5-4.2-0.8-6.6-0.8c-3.6,0-6.2,0.5-7.9,1.6
				c-1.6,1.1-2.5,2.7-2.5,5c0,1.4,0.4,2.6,1.2,3.7c0.8,1.1,1.9,1.9,3.2,2.5c1.4,0.6,2.8,0.9,4.2,0.9c3.7,0,6.4-0.3,7.9-0.8
				c1.5-0.5,2.3-1.5,2.3-3.1v-20.4c0-3.4-1.1-5.8-3.2-7.3c-2.2-1.5-5.2-2.3-9.2-2.3c-3.2,0-6.5,0.6-9.7,1.7c-3.3,1.1-5.9,2.5-8,4.1
				V116c1.9-1.2,4.9-2.3,8.8-3.3c4-1,8.5-1.5,13.5-1.5c1.8,0,3.7,0.1,5.8,0.4c2.1,0.3,4.2,0.8,6.4,1.6c2.1,0.8,4.1,1.9,5.9,3.4
				c1.8,1.5,3.2,3.3,4.3,5.6c1.1,2.3,1.6,5.1,1.6,8.5l-0.1,26.3c0,3.2-1.1,5.7-3.2,7.6c-2.1,1.9-5.2,3.4-9.2,4.2
				C676.9,169.6,672,170,666.4,170z"/>
			<path class="st2" d="M707.6,117.5c1.4-0.7,3.2-1.5,5.5-2.3c2.3-0.8,4.8-1.4,7.5-2c2.7-0.6,5.4-1.1,8.2-1.4
				c2.7-0.4,5.3-0.5,7.6-0.5c5,0,9.2,0.6,12.7,1.9c3.5,1.3,6.2,3.4,8.1,6.2c1.9,2.9,2.8,6.7,2.8,11.7v37.4h-16.4v-34.1
				c0-1.4-0.2-2.7-0.6-3.8c-0.4-1.2-1-2.2-1.8-3c-0.8-0.8-1.9-1.5-3.3-2c-1.4-0.5-3.1-0.7-5.1-0.7c-1.7,0-3.4,0.2-5.1,0.6
				c-1.7,0.4-3,0.8-3.8,1.3v41.8h-16.4V117.5z"/>
		</g>
	</g>
	<path class="st0" d="M177.9,129.6c-3.1,0-5.6-2.5-5.6-5.6v-5.6c0-9.8,8-17.7,17.7-17.7h5.6c3.1,0,5.6,2.5,5.6,5.6
		c0,3.1-2.5,5.6-5.6,5.6H190c-3.6,0-6.5,2.9-6.5,6.5v5.6C183.5,127.1,181,129.6,177.9,129.6z"/>
	<path class="st0" d="M235.8,129.6c-3.1,0-5.6-2.5-5.6-5.6v-5.6c0-3.6-2.9-6.5-6.5-6.5h-5.6c-3.1,0-5.6-2.5-5.6-5.6
		c0-3.1,2.5-5.6,5.6-5.6h5.6c9.8,0,17.7,8,17.7,17.7v5.6C241.5,127.1,238.9,129.6,235.8,129.6z"/>
	<path class="st0" d="M195.6,169.8H190c-9.8,0-17.7-8-17.7-17.7v-5.6c0-3.1,2.5-5.6,5.6-5.6s5.6,2.5,5.6,5.6v5.6
		c0,3.6,2.9,6.5,6.5,6.5h5.6c3.1,0,5.6,2.5,5.6,5.6C201.2,167.3,198.7,169.8,195.6,169.8z"/>
	<path class="st0" d="M223.7,169.8h-5.6c-3.1,0-5.6-2.5-5.6-5.6c0-3.1,2.5-5.6,5.6-5.6h5.6c3.6,0,6.5-2.9,6.5-6.5v-5.6
		c0-3.1,2.5-5.6,5.6-5.6c3.1,0,5.6,2.5,5.6,5.6v5.6C241.5,161.9,233.5,169.8,223.7,169.8z"/>
	<path class="st0" d="M215.4,122.2h-17.1c-2.5,0-4.4,2-4.4,4.4v17.1c0,2.5,2,4.4,4.4,4.4h17.1c2.5,0,4.4-2,4.4-4.4v-17.1
		C219.8,124.2,217.9,122.2,215.4,122.2z"/>
</g>
</svg>
